<svg xmlns="http://www.w3.org/2000/svg" xmlns:xlink="http://www.w3.org/1999/xlink" width="940" zoomAndPan="magnify" viewBox="0 0 705 591.000005" height="788" preserveAspectRatio="xMidYMid meet" version="1.0"><defs><g/><clipPath id="90bfcb8c26"><path d="M 217.632812 60 L 569 60 L 569 413 L 217.632812 413 Z M 217.632812 60 " clip-rule="nonzero"/></clipPath></defs><g clip-path="url(#90bfcb8c26)"><path fill="#d9a522" d="M 530.648438 235.863281 C 519.917969 235.183594 510.003906 238.714844 502.402344 244.828125 C 497.105469 249.171875 489.226562 245.234375 489.226562 238.445312 L 489.226562 149.496094 C 489.226562 145.015625 485.5625 141.347656 481.082031 141.347656 L 389.824219 141.347656 C 382.761719 141.347656 379.234375 133.199219 383.851562 127.769531 C 390.234375 120.4375 393.898438 110.792969 393.628906 100.339844 C 393.21875 79.425781 376.382812 61.90625 355.46875 60.550781 C 331.839844 59.054688 312.148438 77.796875 312.148438 101.152344 C 312.148438 111.335938 315.816406 120.570312 321.925781 127.632812 C 326.542969 132.929688 322.878906 141.214844 315.816406 141.214844 L 225.78125 141.214844 C 221.300781 141.214844 217.632812 144.878906 217.632812 149.359375 L 217.632812 238.445312 C 217.632812 245.234375 225.644531 249.171875 230.941406 244.828125 C 238.546875 238.578125 248.597656 235.050781 259.324219 235.726562 C 279.695312 236.949219 296.261719 253.652344 297.347656 274.023438 C 298.707031 297.652344 280.238281 317.207031 256.878906 317.207031 C 247.101562 317.207031 238.003906 313.8125 231.078125 307.972656 C 225.78125 303.625 217.769531 307.429688 217.769531 314.21875 L 217.769531 404.660156 C 217.769531 409.140625 221.4375 412.808594 225.917969 412.808594 L 315.816406 412.808594 C 322.742188 412.808594 326.542969 404.660156 321.925781 399.363281 C 315.542969 391.894531 311.878906 382.390625 312.285156 371.796875 C 312.964844 351.292969 328.988281 334.179688 349.359375 332.414062 C 373.53125 330.378906 393.628906 349.527344 393.628906 373.289062 C 393.628906 383.476562 389.960938 392.4375 383.851562 399.636719 C 379.367188 404.796875 383.308594 412.941406 390.097656 412.941406 L 481.082031 412.941406 C 485.5625 412.941406 489.226562 409.277344 489.226562 404.796875 L 489.226562 314.625 C 489.226562 307.835938 497.105469 303.898438 502.402344 308.242188 C 509.460938 313.945312 518.289062 317.34375 528.066406 317.34375 C 551.421875 317.34375 570.300781 297.652344 568.667969 273.886719 C 567.3125 253.515625 550.878906 237.222656 530.648438 235.863281 Z M 530.648438 235.863281 " fill-opacity="1" fill-rule="nonzero"/></g><g fill="#efefef" fill-opacity="1"><g transform="translate(130.190617, 505.085674)"><g><path d="M 31.46875 0.953125 C 23.269531 0.953125 16.4375 -1.738281 10.96875 -7.125 C 5.5 -12.519531 2.765625 -19.34375 2.765625 -27.59375 C 2.765625 -35.851562 5.5 -42.675781 10.96875 -48.0625 C 16.4375 -53.457031 23.269531 -56.15625 31.46875 -56.15625 C 39.300781 -56.15625 46.085938 -53.34375 51.828125 -47.71875 L 44.015625 -39.828125 C 42.484375 -41.617188 40.597656 -43.015625 38.359375 -44.015625 C 36.128906 -45.015625 33.832031 -45.515625 31.46875 -45.515625 C 26.53125 -45.515625 22.5625 -43.789062 19.5625 -40.34375 C 16.5625 -36.894531 15.0625 -32.644531 15.0625 -27.59375 C 15.0625 -22.550781 16.5625 -18.304688 19.5625 -14.859375 C 22.5625 -11.421875 26.53125 -9.703125 31.46875 -9.703125 C 36.625 -9.703125 40.910156 -11.804688 44.328125 -16.015625 L 52.84375 -9.078125 C 47.269531 -2.390625 40.144531 0.953125 31.46875 0.953125 Z M 31.46875 0.953125 "/></g></g><g transform="translate(183.746264, 505.085674)"><g><path d="M 23.90625 -45.75 C 21.695312 -45.75 19.765625 -45.300781 18.109375 -44.40625 C 16.453125 -43.507812 15.625 -42.035156 15.625 -39.984375 C 15.625 -38.828125 16.144531 -37.828125 17.1875 -36.984375 C 18.238281 -36.148438 19.445312 -35.519531 20.8125 -35.09375 C 22.1875 -34.675781 23.925781 -34.234375 26.03125 -33.765625 C 26.707031 -33.648438 27.207031 -33.539062 27.53125 -33.4375 C 29.632812 -32.914062 31.40625 -32.441406 32.84375 -32.015625 C 34.289062 -31.597656 35.9375 -30.925781 37.78125 -30 C 39.625 -29.082031 41.097656 -28.054688 42.203125 -26.921875 C 43.304688 -25.796875 44.25 -24.300781 45.03125 -22.4375 C 45.820312 -20.570312 46.21875 -18.484375 46.21875 -16.171875 C 46.21875 -10.753906 44.191406 -6.546875 40.140625 -3.546875 C 36.097656 -0.546875 31.265625 0.953125 25.640625 0.953125 C 21.273438 0.953125 17 0.203125 12.8125 -1.296875 C 8.632812 -2.796875 4.96875 -4.96875 1.8125 -7.8125 L 8.4375 -16.484375 C 13.59375 -11.753906 19.242188 -9.390625 25.390625 -9.390625 C 31.234375 -9.390625 34.15625 -11.492188 34.15625 -15.703125 C 34.15625 -16.429688 34.019531 -17.097656 33.75 -17.703125 C 33.488281 -18.304688 33.054688 -18.832031 32.453125 -19.28125 C 31.847656 -19.726562 31.226562 -20.125 30.59375 -20.46875 C 29.96875 -20.8125 29.128906 -21.140625 28.078125 -21.453125 C 27.023438 -21.765625 26.09375 -22.023438 25.28125 -22.234375 C 24.46875 -22.453125 23.398438 -22.71875 22.078125 -23.03125 C 20.765625 -23.34375 19.6875 -23.601562 18.84375 -23.8125 C 17.113281 -24.289062 15.585938 -24.765625 14.265625 -25.234375 C 12.953125 -25.710938 11.585938 -26.382812 10.171875 -27.25 C 8.753906 -28.113281 7.597656 -29.054688 6.703125 -30.078125 C 5.804688 -31.109375 5.054688 -32.425781 4.453125 -34.03125 C 3.847656 -35.632812 3.546875 -37.410156 3.546875 -39.359375 C 3.546875 -44.617188 5.53125 -48.734375 9.5 -51.703125 C 13.46875 -54.671875 18.1875 -56.15625 23.65625 -56.15625 C 31.019531 -56.15625 37.882812 -53.789062 44.25 -49.0625 L 38.40625 -39.984375 C 33.46875 -43.828125 28.632812 -45.75 23.90625 -45.75 Z M 23.90625 -45.75 "/></g></g><g transform="translate(232.175082, 505.085674)"><g><path d="M 13.484375 -22.328125 L 4.65625 -27.21875 L 7.890625 -55.21875 L 41.484375 -55.21875 L 41.484375 -44.875 L 17.90625 -44.875 L 16.5625 -34 C 18.976562 -35.101562 21.710938 -35.65625 24.765625 -35.65625 C 30.816406 -35.65625 35.757812 -34.007812 39.59375 -30.71875 C 43.4375 -27.4375 45.359375 -23.140625 45.359375 -17.828125 C 45.359375 -12.253906 43.382812 -7.726562 39.4375 -4.25 C 35.488281 -0.78125 30.203125 0.953125 23.578125 0.953125 C 14.898438 0.953125 7.644531 -1.804688 1.8125 -7.328125 L 8.046875 -15.859375 C 12.460938 -11.703125 17.429688 -9.625 22.953125 -9.625 C 26.109375 -9.625 28.578125 -10.359375 30.359375 -11.828125 C 32.148438 -13.304688 33.046875 -15.226562 33.046875 -17.59375 C 33.046875 -20.007812 32.070312 -21.910156 30.125 -23.296875 C 28.1875 -24.691406 25.691406 -25.390625 22.640625 -25.390625 C 19.222656 -25.390625 16.171875 -24.367188 13.484375 -22.328125 Z M 13.484375 -22.328125 "/></g></g></g><g fill="#efefef" fill-opacity="1"><g transform="translate(279.81515, 505.085674)"><g><path d="M 51.65625 -27.609375 C 51.65625 -19.035156 49.445312 -12.128906 45.03125 -6.890625 C 40.613281 -1.660156 34.722656 0.953125 27.359375 0.953125 C 20.003906 0.953125 14.117188 -1.6875 9.703125 -6.96875 C 5.285156 -12.257812 3.078125 -19.140625 3.078125 -27.609375 C 3.078125 -36.078125 5.285156 -42.953125 9.703125 -48.234375 C 14.117188 -53.515625 20.003906 -56.15625 27.359375 -56.15625 C 34.722656 -56.15625 40.613281 -53.515625 45.03125 -48.234375 C 49.445312 -42.953125 51.65625 -36.078125 51.65625 -27.609375 Z M 36.203125 -14.46875 C 38.304688 -17.65625 39.359375 -22.035156 39.359375 -27.609375 C 39.359375 -33.179688 38.304688 -37.554688 36.203125 -40.734375 C 34.097656 -43.921875 31.148438 -45.515625 27.359375 -45.515625 C 23.578125 -45.515625 20.632812 -43.921875 18.53125 -40.734375 C 16.425781 -37.554688 15.375 -33.179688 15.375 -27.609375 C 15.375 -22.035156 16.425781 -17.65625 18.53125 -14.46875 C 20.632812 -11.289062 23.578125 -9.703125 27.359375 -9.703125 C 31.148438 -9.703125 34.097656 -11.289062 36.203125 -14.46875 Z M 36.203125 -14.46875 "/></g></g></g><g fill="#efefef" fill-opacity="1"><g transform="translate(334.553909, 505.085674)"><g><path d="M 20.265625 -11.359375 L 12.625 0 L 0.390625 0 L 14.28125 -19.875 L 0.875 -38.8125 L 13.09375 -38.8125 L 20.265625 -28.078125 L 27.453125 -38.8125 L 39.671875 -38.8125 L 26.265625 -19.875 L 40.140625 0 L 27.921875 0 Z M 20.265625 -11.359375 "/></g></g></g><g fill="#efefef" fill-opacity="1"><g transform="translate(393.445744, 503.746746)"><g><path d="M 5.910156 0 L 12.199219 0 L 12.199219 -43.03125 L 12.425781 -43.03125 L 37.5 0 L 44.621094 0 L 44.621094 -52.5 L 38.335938 -52.5 L 38.335938 -11.667969 L 38.105469 -11.667969 L 14.015625 -52.5 L 5.910156 -52.5 Z M 5.910156 0 "/></g></g></g><g fill="#efefef" fill-opacity="1"><g transform="translate(443.97754, 503.746746)"><g><path d="M 20.910156 0.757812 C 27.347656 0.757812 31.742188 -1.289062 34.09375 -3.03125 L 34.09375 -7.953125 C 30.53125 -6.136719 27.199219 -5 21.96875 -5 C 14.242188 -5 9.695312 -8.257812 9.242188 -17.5 L 35.226562 -17.5 L 35.226562 -21.289062 C 35.226562 -33.484375 30.152344 -39.621094 19.46875 -39.621094 C 10.453125 -39.621094 2.347656 -33.5625 2.347656 -20 L 2.347656 -18.863281 C 2.347656 -6.820312 8.636719 0.757812 20.910156 0.757812 Z M 19.167969 -34.242188 C 25.078125 -34.242188 28.183594 -31.0625 28.183594 -22.878906 L 9.242188 -22.878906 C 9.847656 -31.820312 14.847656 -34.242188 19.167969 -34.242188 Z M 19.167969 -34.242188 "/></g></g><g transform="translate(481.554419, 503.746746)"><g><path d="M 4.773438 14.773438 L 11.441406 14.773438 L 11.441406 -1.742188 C 13.484375 -0.53125 16.742188 0.757812 21.136719 0.757812 C 31.820312 0.757812 38.636719 -5.226562 38.636719 -19.46875 L 38.636719 -20.53125 C 38.636719 -34.847656 31.136719 -39.621094 22.726562 -39.621094 C 17.957031 -39.621094 13.863281 -37.957031 11.515625 -35.757812 L 11.136719 -35.757812 L 11.136719 -38.863281 L 4.773438 -38.863281 Z M 20.53125 -4.695312 C 16.589844 -4.695312 13.105469 -5.984375 11.441406 -7.347656 L 11.441406 -31.289062 C 13.105469 -32.5 16.589844 -33.941406 20.910156 -33.941406 C 27.878906 -33.941406 31.742188 -30.757812 31.742188 -20.226562 L 31.742188 -18.5625 C 31.742188 -8.410156 27.578125 -4.695312 20.53125 -4.695312 Z M 20.53125 -4.695312 "/></g></g></g><g fill="#efefef" fill-opacity="1"><g transform="translate(522.767774, 503.746746)"><g><path d="M 14.320312 0.757812 C 19.46875 0.757812 22.578125 -1.0625 24.46875 -3.257812 L 24.925781 -3.257812 L 25.605469 0 L 30.984375 0 L 30.984375 -28.183594 C 30.984375 -35.984375 26.0625 -39.621094 17.425781 -39.621094 C 12.726562 -39.621094 9.015625 -38.863281 5.53125 -37.5 L 5.53125 -32.726562 C 7.878906 -33.257812 10.984375 -33.863281 14.773438 -33.863281 C 21.742188 -33.863281 24.320312 -32.425781 24.320312 -26.515625 L 24.320312 -22.878906 L 14.015625 -21.589844 C 6.667969 -20.683594 2.273438 -17.046875 2.273438 -10.304688 C 2.273438 -2.804688 7.347656 0.757812 14.320312 0.757812 Z M 16.0625 -4.394531 C 11.894531 -4.394531 9.167969 -6.363281 9.167969 -10.453125 C 9.167969 -14.699219 11.363281 -16.441406 15.757812 -16.894531 L 24.320312 -17.804688 L 24.320312 -7.046875 C 22.652344 -5.53125 19.394531 -4.394531 16.0625 -4.394531 Z M 16.0625 -4.394531 "/></g></g></g><g fill="#efefef" fill-opacity="1"><g transform="translate(558.299125, 503.746746)"><g><path d="M 5 0 L 11.667969 0 L 11.667969 -55.988281 L 5 -55.988281 Z M 5 0 "/></g></g></g></svg>